<svg width="82" height="82" viewBox="0 0 82 82" fill="none" xmlns="http://www.w3.org/2000/svg">
<path fill-rule="evenodd" clip-rule="evenodd" d="M21.8684 7.45665C25.1642 7.19365 28.2929 5.89767 30.8093 3.75322C36.6816 -1.25107 45.3184 -1.25107 51.1907 3.75322C53.7071 5.89767 56.8358 7.19365 60.1316 7.45665C67.8224 8.07039 73.9296 14.1776 74.5434 21.8684C74.8064 25.1642 76.1023 28.2929 78.2468 30.8093C83.2511 36.6816 83.2511 45.3184 78.2468 51.1907C76.1023 53.7071 74.8064 56.8358 74.5434 60.1316C73.9296 67.8224 67.8224 73.9296 60.1316 74.5434C56.8358 74.8064 53.7071 76.1023 51.1907 78.2468C45.3184 83.2511 36.6816 83.2511 30.8093 78.2468C28.2929 76.1023 25.1642 74.8064 21.8684 74.5434C14.1776 73.9296 8.07039 67.8224 7.45665 60.1316C7.19365 56.8358 5.89767 53.7071 3.75322 51.1907C-1.25107 45.3184 -1.25107 36.6816 3.75322 30.8093C5.89767 28.2929 7.19365 25.1642 7.45665 21.8684C8.07039 14.1776 14.1776 8.07039 21.8684 7.45665ZM59.9989 34.3739C62.0004 32.3725 62.0004 29.1275 59.9989 27.1261C57.9975 25.1246 54.7525 25.1246 52.7511 27.1261L35.875 44.0022L29.2489 37.3761C27.2475 35.3746 24.0025 35.3746 22.0011 37.3761C19.9996 39.3775 19.9996 42.6225 22.0011 44.6239L32.2511 54.8739C34.2525 56.8754 37.4975 56.8754 39.4989 54.8739L59.9989 34.3739Z" fill="#029866"/>
</svg>
